<?xml version="1.0" encoding="utf-8"?>
<!-- Generator: Adobe Illustrator 21.0.2, SVG Export Plug-In . SVG Version: 6.00 Build 0)  -->
<svg version="1.1" id="Layer_2" xmlns="http://www.w3.org/2000/svg" xmlns:xlink="http://www.w3.org/1999/xlink" x="0px" y="0px"
	 viewBox="0 0 2880 1800" style="enable-background:new 0 0 2880 1800;" xml:space="preserve">
<style type="text/css">
	.st0{fill:#51FF00;}
</style>
<title>mww karta 2</title>
<polygon class="st0" points="830.8,497.1 757.2,497.1 720.4,560.8 757.2,624.6 830.8,624.6 867.7,560.8 "/>
<polygon class="st0" points="830.8,638.8 757.2,638.8 720.4,702.6 757.2,766.4 830.8,766.4 867.7,702.6 "/>
<polygon class="st0" points="1076.3,497.1 1002.7,497.1 965.8,560.8 1002.7,624.6 1076.3,624.6 1113.1,560.8 "/>
<polygon class="st0" points="830.8,355.3 757.2,355.3 720.4,419.1 757.2,482.9 830.8,482.9 867.7,419.1 "/>
<polygon class="st0" points="952.8,426.2 879.2,426.2 842.4,490 879.2,553.8 952.8,553.8 989.7,490 "/>
<polygon class="st0" points="1076.3,355.3 1002.7,355.3 965.8,419.1 1002.7,482.9 1076.3,482.9 1113.1,419.1 "/>
<polygon class="st0" points="1076.3,213.6 1002.7,213.6 965.8,277.4 1002.7,341.2 1076.3,341.2 1113.1,277.4 "/>
<polygon class="st0" points="1198.3,284.5 1124.7,284.5 1087.8,348.2 1124.7,412 1198.3,412 1235.1,348.2 "/>
<polygon class="st0" points="1321.8,213.6 1248.1,213.6 1211.3,277.4 1248.1,341.2 1321.8,341.2 1358.6,277.4 "/>
<polygon class="st0" points="1198.3,142.7 1124.7,142.7 1087.8,206.5 1124.7,270.3 1198.3,270.3 1235.1,206.5 "/>
<polygon class="st0" points="1321.8,71.9 1248.1,71.9 1211.3,135.6 1248.1,199.4 1321.8,199.4 1358.6,135.6 "/>
<polygon class="st0" points="1199,567.9 1125.4,567.9 1088.6,631.7 1125.4,695.5 1199,695.5 1235.9,631.7 "/>
<polygon class="st0" points="1199,426.2 1125.4,426.2 1088.6,490 1125.4,553.8 1199,553.8 1235.9,490 "/>
<polygon class="st0" points="1321.1,497.1 1247.4,497.1 1210.6,560.8 1247.4,624.6 1321.1,624.6 1357.9,560.8 "/>
<polygon class="st0" points="705.9,567.9 632.3,567.9 595.4,631.7 632.3,695.5 705.9,695.5 742.7,631.7 "/>
<polygon class="st0" points="1076.3,638.8 1002.7,638.8 965.8,702.6 1002.7,766.4 1076.3,766.4 1113.1,702.6 "/>
<polygon class="st0" points="952.8,567.9 879.2,567.9 842.4,631.7 879.2,695.5 952.8,695.5 989.7,631.7 "/>
<polygon class="st0" points="1444.5,142.7 1370.9,142.7 1334,206.5 1370.9,270.3 1444.5,270.3 1481.3,206.5 "/>
<polygon class="st0" points="1444.5,1 1370.9,1 1334,64.8 1370.9,128.5 1444.5,128.5 1481.3,64.8 "/>
<polygon class="st0" points="705.9,426.8 632.3,426.8 595.4,490.5 632.3,554.3 705.9,554.3 742.7,490.5 "/>
<polygon class="st0" points="1321.1,355.3 1247.4,355.3 1210.6,419.1 1247.4,482.9 1321.1,482.9 1357.9,419.1 "/>
<polygon class="st0" points="1444.5,284.5 1370.9,284.5 1334,348.2 1370.9,412 1444.5,412 1481.3,348.2 "/>
<polygon class="st0" points="1735.6,874.3 1613.8,874.3 1552.9,979.7 1613.8,1085.2 1735.6,1085.2 1796.5,979.7 "/>
<polygon class="st0" points="1329.7,874.3 1207.9,874.3 1147,979.7 1207.9,1085.2 1329.7,1085.2 1390.6,979.7 "/>
<polygon class="st0" points="1938.5,757.1 1816.7,757.1 1755.8,862.5 1816.7,968 1938.5,968 1999.4,862.5 "/>
<polygon class="st0" points="1531.4,757.1 1409.6,757.1 1348.7,862.5 1409.6,968 1531.4,968 1592.3,862.5 "/>
<polygon class="st0" points="1735.6,639.9 1613.8,639.9 1552.9,745.4 1613.8,850.8 1735.6,850.8 1796.5,745.4 "/>
<polygon class="st0" points="1938.5,522.7 1816.7,522.7 1755.8,628.2 1816.7,733.6 1938.5,733.6 1999.4,628.2 "/>
<polygon class="st0" points="1735,405.5 1613.2,405.5 1552.3,511 1613.2,616.4 1735,616.4 1795.9,511 "/>
<polygon class="st0" points="1126.6,990 1004.8,990 943.9,1095.5 1004.8,1201 1126.6,1201 1187.5,1095.5 "/>
<polygon class="st0" points="1937.9,288.3 1816.2,288.3 1755.3,393.8 1816.2,499.3 1937.9,499.3 1998.8,393.8 "/>
<polygon class="st0" points="1937.9,53.9 1816.2,53.9 1755.3,159.4 1816.2,264.9 1937.9,264.9 1998.8,159.4 "/>
<polygon class="st0" points="246.6,306.2 358.1,306.2 413.9,209.7 358.1,113.1 246.6,113.1 190.9,209.7 "/>
<polygon class="st0" points="618.3,306.2 729.8,306.2 785.6,209.7 729.8,113.1 618.3,113.1 562.5,209.7 "/>
<polygon class="st0" points="60.8,413.5 172.3,413.5 228.1,317 172.3,220.4 60.8,220.4 5,317 "/>
<polygon class="st0" points="433.6,413.5 545.1,413.5 600.8,317 545.1,220.4 433.6,220.4 377.8,317 "/>
<polygon class="st0" points="246.6,520.9 358.1,520.9 413.9,424.3 358.1,327.7 246.6,327.7 190.9,424.3 "/>
<polygon class="st0" points="60.8,628.2 172.3,628.2 228.1,531.6 172.3,435 60.8,435 5,531.6 "/>
<polygon class="st0" points="247.2,735.5 358.7,735.5 414.4,638.9 358.7,542.3 247.2,542.3 191.4,638.9 "/>
<polygon class="st0" points="804.2,200.3 915.7,200.3 971.5,103.7 915.7,7.1 804.2,7.1 748.5,103.7 "/>
<polygon class="st0" points="61.3,842.8 172.8,842.8 228.6,746.2 172.8,649.6 61.3,649.6 5.6,746.2 "/>
<polygon class="st0" points="61.3,1057.4 172.8,1057.4 228.6,960.8 172.8,864.2 61.3,864.2 5.6,960.8 "/>
<polygon class="st0" points="246.6,1164.7 358.1,1164.7 413.9,1068.1 358.1,971.6 246.6,971.6 190.9,1068.1 "/>
<polygon class="st0" points="433.6,200.8 545.1,200.8 600.8,104.2 545.1,7.6 433.6,7.6 377.8,104.2 "/>
</svg>
